<svg xmlns="http://www.w3.org/2000/svg" width="174.32" height="76.824" viewBox="0 0 174.32 76.824">
  <g id="Group_919" data-name="Group 919" transform="translate(-1509 -932)">
    <g id="Group_14" data-name="Group 14" transform="translate(1147.505 782.768)">
      <path id="Path_484" data-name="Path 484" d="M496.469,152.627q-53.656-.036-107.307,0c-8.077,0-16.157.009-24.229.081-2.5.023-2.717.543-1.538,2.736.439.811.8,1.543,1.888,1.7.636.1.64.638.047,1.009l-.425.622c.017.539.04,1.079.061,1.618l1.344.262c.9-.036,1.805-.1,2.712-.1,29.09,0,58.176.218,87.27.043,6.442-.04,12.821-.9,19.239-.978,10.964-.135,21.9-.732,32.858-1.108,5.1-.173,10.2-.527,15.3-.8,1.427-1.4,3.185-1.212,4.944-1.033l.985-.01c.416-.076.538.12.461.5-.184,5.1-.5,10.208-.525,15.313-.064,14.184-.01,28.368,0,42.554,0,2.081,0,2.1-2.192,2.089-14.43-.049-28.861.08-43.289.092-29.093.023-58.19.435-87.284-.057-7.465-.127-14.959-.5-22.4.747a3.111,3.111,0,0,0-2.45,1.67c-.735,1.311-.6,1.805.829,1.9,2.3.146,4.547.64,6.875.636q65.191-.06,130.386-.036c5.193,0,10.39.031,15.575-.224a42.581,42.581,0,0,0,6.367-.435c.492-.364.992-.728,1.484-1.092.371-.42.456-1.077,1.047-1.3.364-.135.539-.295.357-.694-.834-1.836-.167-3.735-.173-5.594-.061-14.56.049-29.122-.071-43.681-.052-6.371-.057-12.781-1.841-19-.439-.473-.831-1.051-1.626-.725.485.947-.671,1.6-.435,2.532.293,1.148-.333,1.384-1.373,1.328-2.88-.156-5.76-.281-8.642-.321C512.617,152.757,504.546,152.632,496.469,152.627Zm-125.861,5.4c-1.217.033-2.433.083-3.648.088-.361,0-.883.064-.935-.473-.054-.584.475-.562.841-.56a19.665,19.665,0,0,1,3.886.1c6.359.017,12.75-.678,19.048.785C383.4,158.108,377,158.254,370.608,158.027Z" transform="translate(0.887)" fill="#e2e2e2" fill-rule="evenodd"/>
      <path id="Path_485" data-name="Path 485" d="M362.242,222.966a1.1,1.1,0,0,0,.978,0c.333-4.666.61-9.336.6-14.018a3.334,3.334,0,0,1,.175-1.451c1.562-3.024,1.639-6.345,1.744-9.591.2-6.154.381-12.313.172-18.474a69.3,69.3,0,0,1,.055-8.861,42.587,42.587,0,0,0-1.372-6.416c-1.082-.4-.76-1.335-.773-2.107-.05-2.632-.05-5.266-.1-7.9-.009-.4-.114-.886-.647-.869-.458.012-.99-.014-1.216.591a5.457,5.457,0,0,0-.257,1.946c0,3.539-.036,7.078,0,10.616C361.8,185.279,360.915,204.134,362.242,222.966Z" transform="translate(0 2.973)" fill="#e2e2e2" fill-rule="evenodd"/>
    </g>
    <text id="Sair" transform="translate(1596 983)" fill="#efd473" font-size="42" font-family="freeversionSketchBlock-Bold, Sketch Block" font-weight="700"><tspan x="-42.357" y="0">Sair</tspan></text>
  </g>
</svg>
