<svg xmlns="http://www.w3.org/2000/svg" width="618.023" height="618.023" viewBox="0 0 618.023 618.023">
  <g id="Group_915" data-name="Group 915" transform="translate(107.653 -227.454) rotate(45)">
    <path id="Path_3337" data-name="Path 3337" d="M99.385,246.61a46.782,46.782,0,0,0,8.311.61A39.374,39.374,0,0,0,99.385,246.61Z" fill="#fff"/>
    <path id="Path_3338" data-name="Path 3338" d="M107.757,247.229a.453.453,0,0,0,.049-.005l-.11,0Z" fill="#fff"/>
    <path id="Path_3339" data-name="Path 3339" d="M946.72,226.152v-.18c-1.467-.018-2.979,0-4.106.06l-.5.621c-6.693.218-1.567-.369-8.1-.327-.349-.508,5.664-.617,10.958-.666-4.767-.058-9.516-.43-11.458.127-4.48-.212.5-.621-4.9-.839-3.843.151-8.893.648-13.307.347l.079-.09c-10.735-.524-16.426.772-26.234.252l1.058-.17c-3.468-.294-10.292.1-16.546-.212,1.784.1,3.335.47-.425.53-7.191-.32-12.1,0-17.354-.395l-5.044.5c-25.036-.1-123.927.61-149.077.689l.984-.079c-38.317.249-116.98.21-156.583.9-6.125-.489-14.572-.374-20.964-.512,3.555.205,2.338.553-.437.532-19.47-.056-1.314.339-21.005.548-22.675.456-109.448-.062-129.575-.48-10.811.722-24.308.177-34.9.633l1.067-.17c-11.376.271-75.772-.4-88.993-.14l1.776.1c-11.528.448-9.957-.342-19.042-.588,1.193.81-8.685,1.27-12.453,1.332l.143-.178c-5.681.137-18.552.841-27.936.949l.368-.443c-7.825.476-22.539.278-28.163.325-12.861-.184-32.7-.955-49.9-.369l-11.11-1.265-1.627.126s-17.893,15.264,4.822,18.514l-.363.443,4.492-.057c5.388.217,7.879-.295,7.514.146l-7.382-.054c5.414.128,1.633.364-.432.614,2.261.043,4.453.1,6.253.231,1.067-.17-.784-.184-1.627-.279a96.47,96.47,0,0,1,10.514-.368c5.544.041.353.716,6.822.764,34.116.343,67.173.856,101.656.756.783.184-.15.177-1.146.26,10.389-.192,19.622-.122,29.081-.32a18.838,18.838,0,0,1,4.122.654c-.781-.184,12.279-.283,25.64-.326l18.577-.023c5.138,0,8.662.02,8.875.044l.658-.8c10.227-.011,2.978.915,12.434.717,3.7-1.131,15.709.117,18.979-.483-.075.09,4.556.124,4.264.477,1.418-.614,4.762-.142,7.683-.3,1.059-.169-.777-.183-1.568-.368l6.69-.216c2.615.2,3.26.558.417.626,17.484.219,101.424.807,120.259.5-2.421-.463-8.235-.15-10.445-.878,4.978-.41,7.331.142,9.525-.288,1.912,1.085,10.943.26,14.712,1.359l1.43-.615,2.474.377c21.9-.64,5-.313,24.416-.168,11.063-.093,16.409-.918,22.539-.644-1.049-.062-2.854-.386-.209-.528.5.539,7.749-.387,9.167.158,2.85-.068,12.086,0,8.961-.736,1.568.368,9.809.518,4.9.838,2.78.022,5.472.13,7.472-.033l-3.569-.206c9.39-.106,14.506.465,20.619-.2l-3.469-.293c5.613-.047,10.307-.1,12.511.628l-5.763.224c9.309-.019,14.923-.067,22.682-.455l-2.769-.02c9.883-.728,61.591-1.331,70.7-2.244l-4.193-.565,7.832-.478c-.927-.007-3.78,1.84-4.557,1.654,16.783-.052,104.082-.492,119.583-.11,6.253.313,1.125.9,1.054.989,7.611-.212,3.283-.6,9.754-.553,1.768.1-.364.445-1.358.526,2.836-.067,5.465.129,5.681-.136-3.545-.205-2.043-.907-3.545-1.364l8.322.061-.368.444c1.856.013,4.707-1.213,12.884-.975,13.794.192,28.778.036,42.647.14-.215.265-3.127.423-6.047.579,1.86.014,4.694-.055,6.408.137-3.351-.471,5.821-.314,3.2-.511,10.161-1.084,23.3-.1,32.273-.83.784-.976,19.2-16.751,19.2-17.91Z" fill="#fff"/>
  </g>
</svg>
