<svg xmlns="http://www.w3.org/2000/svg" width="68.292" height="86.62" viewBox="0 0 68.292 86.62">
  <g id="Group_69" data-name="Group 69" transform="translate(-133.765 -207.993) rotate(30)">
    <path id="Path_3918" data-name="Path 3918" d="M267.1,138.246c.4-.557.81-1.113,1.217-1.676-.6-.392-.105-.962.1-1.29.214-.343.788-.459,1.3-.723l-.524-1,1.258-.359-.321-.621.8-.189c.26-.536.514-1.1.8-1.642.215-.406.371-.895.991-.867.11,0,.335-.164.324-.215-.16-.83,1.139-1.3.554-2.227a.275.275,0,0,1,.047-.253c.794-.341.594-1.238,1.019-1.777.057-.071.239-.041.426-.068a2.839,2.839,0,0,1-.1-.723c.024-.242-.3-.741.359-.651a2.194,2.194,0,0,1-.1-.782,6.711,6.711,0,0,0-.36-3.716,10.331,10.331,0,0,0-2.947-4.959,17.331,17.331,0,0,0-1.458-1.3,3.251,3.251,0,0,0-1.719-.363,10.5,10.5,0,0,0-1.93.217,5.63,5.63,0,0,0-2.211.929,13.184,13.184,0,0,0-2.741,2.265,4.656,4.656,0,0,0-1.843,3.512,25.68,25.68,0,0,0,0,2.806,4.285,4.285,0,0,0,.528,1.568,17.519,17.519,0,0,0,2.224,3.966,3.526,3.526,0,0,1,.429,3.108,12.406,12.406,0,0,1-2.574,4.814c-.86,1.062-2.3,1.632-3.4,2.519-1.8,1.444-4.133.659-5.628-.255a.725.725,0,0,1-.266-.33c-.506-1.212-1.637-1.939-2.326-2.994a18.444,18.444,0,0,1-1.231-2.53c-.093-.208.013-.546-.12-.689-1.032-1.109-.937-2.644-1.491-3.935-.275-.642.011-1.5-.121-2.235-.118-.657-.234-1.733-.365-2.164-.256-.848.346-1.678-.077-2.518-.12-.241.093-.631.1-.953,0-.6.431-1.084.222-1.793a2.139,2.139,0,0,1,.527-1.724c.351-.374.437-.539.311-1.022-.077-.3.217-.712.659-.031.083-1.08.634-1.949.277-2.958.22-.434.892-.642.778-1.385-.03-.195.755-.585.709-.7-.324-.788.423-.918.72-1.294l-.233-.582c.453-.33,1.327.277,1.367-.725h-.521c.006-.1-.022-.233.02-.261.157-.1.4-.126.5-.261a2.875,2.875,0,0,1,1.606-1.126.793.793,0,0,0,.566-.972c.73.231.716-.494,1.044-.848l.421.535c.071-.017.2-.05.2-.053-.16-.7.492-1.115.819-1.359a9.406,9.406,0,0,1,2.744-1.816c.818-.255,1.53-.867,2.353-1.1,1.143-.318,2.121-1.172,3.409-1.036.288.03.8-.289.859-.2.321.458.692.256,1.025.153.36-.113.728-.527,1.022-.465,1.266.263,2.392-.838,3.685-.294.3.126.742-.1,1.12-.162a9.188,9.188,0,0,1,3.809.31,12.22,12.22,0,0,0,1.488.2,8.528,8.528,0,0,1,4.051,1.676c1,.771,2.111,1.4,3.158,2.114a2.148,2.148,0,0,1,1.087,1.324c.05.236.384.4.569.618.453.527,1.112,1,1.291,1.607a21.773,21.773,0,0,0,1.1,2.631,50.923,50.923,0,0,1,1.378,4.97c.176.536-.239,1.124-.044,1.785a16.19,16.19,0,0,1,.274,2.6c.038.305.1.533-.242.714a.539.539,0,0,0-.1.514c.516.885-.3,1.667-.178,2.532.041.3-.461.668-.429.977.05.489.028.709-.514.613-.1.494-.211.986-.3,1.481-.033.176.047.426-.047.53-1.157,1.269-1.576,2.952-2.478,4.351a5.882,5.882,0,0,1-1.167,1.477,7.513,7.513,0,0,0-1.238,2.059c-.288.48-.623.933-.926,1.4a2.33,2.33,0,0,0-.337.623,1.922,1.922,0,0,1-.9,1.346c-.41.25-.521,1-.749,1.538-.025.058.11.217.087.239-1.36,1.285-1.508,3.2-2.458,4.7-.1.16-.179.335-.308.577.41.5.473,1.3,1.255,1.571,1.3,1.782,2.4,3.674,2.277,5.957a7.439,7.439,0,0,1-.881,2.409c-.25.555-.651,1.043-.906,1.6-.241.524-.772.758-1.118,1.175a4.957,4.957,0,0,1-2.107,1.049c-.58.215-1.219-.063-1.831.046-.082.014-.236-.02-.258-.074-.374-.887-1.231-.892-1.972-1.132a1.672,1.672,0,0,1-.687-.516c-.917-1.068-1.842-2.134-2.7-3.246a17.075,17.075,0,0,1-2.008-2.93,10.25,10.25,0,0,1-.983-2.631c-.071-.421-.421-.587-.448-.97a4.946,4.946,0,0,1,.047-2.7,10.06,10.06,0,0,0,.387-2.431c.039-.223.3-.41.333-.632a4.8,4.8,0,0,0-.1-.816c-.025-.752.757-.955,1.043-1.5Zm-.822-32.906-.041-.035v.717a3.906,3.906,0,0,0-.689.639c-.1.171-.02.461-.135.613-.75,1.006-1.739,1.849-1.991,3.185a1.809,1.809,0,0,1-.557.813,2.728,2.728,0,0,0-.782,2.48c1.095-1.047,2.14-2.021,3.148-3.035a3.616,3.616,0,0,0,.467-.89c.211-.4.335-.929.667-1.168a3.813,3.813,0,0,0,1.051-1.6l-.036-.052c.069.362.316.822.178,1.066-.605,1.073-.745,2.394-1.73,3.3.387-.085.7-.3,1.038-.387a8,8,0,0,1,1.236-.132,1.767,1.767,0,0,1,.145-.374,15.221,15.221,0,0,1,.948-1.345c.082-.1.359-.038.547-.049l-.033-.027c-.182.565-.363,1.128-.594,1.845l1.518.484c.432-.635.813-1.22,1.231-1.775.053-.071.31.014.473.028-.39.615-.778,1.23-1.235,1.95.4.2.948.308,1.151.631.373.587.635.088.944.049l-.046-.049a3.213,3.213,0,0,0,.846,1.724,6.147,6.147,0,0,1,1.437,2.158c.415,1.3,1.554,2.3,1.514,3.787-.009.335.506.76.415,1.006-.321.865.392,1.51.359,2.3a2.256,2.256,0,0,0-.646,1.81c.023.112-.093.25-.137.379a22.144,22.144,0,0,1-3.656,6.629,20.487,20.487,0,0,0-2.467,2.925,5.868,5.868,0,0,1-.805,1.56c-.577.557-.733,1.319-1.184,1.892a3.464,3.464,0,0,0-.833,1.862,1.078,1.078,0,0,1-.127.4,5.7,5.7,0,0,0-.756,3.221c.014.189-.137.557-.217.558-.445.008-.321.329-.233.469.728,1.154.711,2.576,1.378,3.755a17.991,17.991,0,0,0,1.139,2.323,13.773,13.773,0,0,0,2.974,3.35,4.265,4.265,0,0,1,.764.956,2.181,2.181,0,0,0,.472.527,3.5,3.5,0,0,0,3.828.054,6.942,6.942,0,0,1,.849-.3c-.167-.884.631-1.12,1.183-1.614-.116-.714-.17-1.458.563-1.654a5.217,5.217,0,0,0-.591-3.979c-.7-1.071-1.135-2.505-2.806-2.725-.126.39-.234.8-.39,1.189a4.478,4.478,0,0,1-.568,1.126c-.137.171-.489.171-.744.248.362.348-.164.436-.206.654l.719.12a8.006,8.006,0,0,0-.531,1.914,1.592,1.592,0,0,1-.711,1.313c-.291-.561-.415-.981.215-1.352.124-.074.1-.409.151-.69l-1.178.376c0-.3-.076-.56.013-.734a22.443,22.443,0,0,0,1.769-3.656.707.707,0,0,1,.234-.346,1.979,1.979,0,0,0,.744-2.23c.577-.176,1.315-.058,1.168-.955l-.585-.12a6.46,6.46,0,0,0,.632-.967c.082-.187-.021-.456-.047-.782-.554.277-.977.363-1.085.983-.058.321-.233.956-1.021.821.344-.7.612-1.341.977-1.922.113-.181.484-.253.747-.278.755-.071,1.43-.406,1.31-.928-.193-.851.308-.873.909-.95l-.425-.343a1.3,1.3,0,0,0,.786-1.661c.966-.322.992-.308,1.39-1.118.12-.244.739-.443.173-.907-.082-.066.274-.706.47-1.055.1-.181.3-.44.451-.439.672.011.876-.466,1.091-.937.2-.443.436-.892.248-1.26l1.285-.826-.477-.789,1.222-.81c-.467-.749-.514-.881-.044-1.348.31-.31.684-.464.376-1.014-.068-.118.269-.462.42-.7.014.307-.146.7.462.709-.167-.226-.332-.454-.5-.681a1.744,1.744,0,0,0,.92-2.206l1.019-.285c.08-.632-.025-1.335.269-1.765.456-.67.308-1.016-.25-1.384.269-.31.538-.62.8-.917a2.8,2.8,0,0,1-.269-1.332c-.025-.439-.245-.865-.278-1.305-.053-.709.038-1.431-.044-2.136-.124-1.068,0-2.224-.873-3.09-.058-.06-.055-.181-.082-.272a12.487,12.487,0,0,0-.837-2.719c-.462-.813-.959-1.626-1.463-2.425a5.361,5.361,0,0,0-.569-.8c-1.274-1.378-3.134-1.947-4.49-3.221-.063-.058-.336.107-.511.168l-.514-.263c.036-.173.071-.346.116-.566-.981-.206-1.931-.472-2.9-.591s-1.949-.091-2.936-.129c.4.9-.549,1.362-.678,2.173l-1.4-.129,1.823-1.483c-.758-1.049-.749-1.01-1.547-.794a8.52,8.52,0,0,1-2.672.354,10.633,10.633,0,0,0-4.16.827l-.214-.293c-.623.286-1.231.8-1.82.777-.733-.027-1.11.7-1.909.543-.5-.1-1.12.469-1.689.738-.1.19-.184.585-.407.7a22.917,22.917,0,0,0-3.189,2.128c-.51.374-.676.983-1.2,1.25-1.282.66-1.884,1.931-2.711,2.99a10.876,10.876,0,0,0-1,1.868c-.288.574-.533,1.17-.837,1.735-.664,1.231-.585,2.744-1.488,3.886a.428.428,0,0,0,0,.388.8.8,0,0,1-.237,1.126c-.293.267-.195.6.11.865.58.5.352-.558.756-.385.487.892.487.892-.455,1.381l-.2-.673-.282-.014c-.134.357-.267.716-.456,1.219l.986-.583c.25.587-.123.885-.53,1.187-.129.094-.3.263-.3.393a12.241,12.241,0,0,0,.209,3.246c.319,1.025.489,2.084.833,3.095-.448.577.315.786.376,1.22a6.372,6.372,0,0,0,.368,1.271c.033.091.217.127.286.164.966-.794.76-2.211,1.72-2.982a.336.336,0,0,0,.118-.255c-.1-.661.324-1.088.632-1.593a41.4,41.4,0,0,0,2.2-3.858,27.375,27.375,0,0,1,2.626-3.873,4.321,4.321,0,0,1-.483,1.922,10.913,10.913,0,0,0-1.277,1.826,18.218,18.218,0,0,1-1.071,2.139,3.275,3.275,0,0,1-.739,1.176,2.78,2.78,0,0,0-.9,1.494,9.193,9.193,0,0,1-1.179,2.519,16.658,16.658,0,0,0-.948,2.675,11.807,11.807,0,0,0,1.134,2.625,10.892,10.892,0,0,0,1.464,2.084,2.272,2.272,0,0,0,2.107.755c.486-.182,1.013-.08,1.475-.282l-.255-.36c.64-.4,1.22-1.038,1.846-1.087.58-.047,1.077-.256,1.117-.61.072-.659.895-.447.914-.986.025-.763.664-1.234.857-1.879.189-.624.7.036.815-.236a3.628,3.628,0,0,1-.26-.783c.624-.379-.09-.709-.031-1.054l.709-.071c-.431-.9-.837-1.752-1.3-2.73-.179.321-.467.618-.4.766a.783.783,0,0,1-.379.964,1.279,1.279,0,0,0-.623,1.423l-1.313,1.233c.253,1.088-.634,1.115-1.283,1.387a8.631,8.631,0,0,1,1.209-2.618c.906-.992,1.063-2.5,2.106-3.469.052-.047.51-.676-.049-1.052-.275-.186-.393-.6-.588-.912-.181-.288-.37-.572-.709-1.1-.2,1.356-1.28,1.846-1.56,2.971-.258,1.043-1.341,1.76-1.794,2.824-.437,1.029-1.052,1.98-1.631,3.04l-.609-.687c.316-.767,1.148-1.154.992-2.029,1.029-.97,1.093-2.472,1.98-3.556.436-.535.467-1.387,1.065-1.919s.634-1.477,1.43-1.871a.526.526,0,0,0,.134-.491c-.385-.832-.049-1.793-.491-2.609-.017-.031.069-.118.108-.179.08.044.162.085.237.135.038.025.061.074.1.1.017.013.055,0,.083-.008.148-.423-.418-.9.107-1.3a17.146,17.146,0,0,1-.033-2.494c0-.179-.063-.41.024-.53.841-1.146,1.585-2.351,2.331-3.564,1.2-1.949,2.579-3.792,3.938-5.639C265.349,106.1,265.535,105.413,266.274,105.34Zm-6.28,10.595-.244-.113-.305.659.223.1Z" transform="translate(0 0)" fill="#8a8db1"/>
    <path id="Path_3919" data-name="Path 3919" d="M283.332,142.831l.431.478c-.533.129-.271.638-.4.848-.448.72-.346,1.678-1.046,2.261-.766.637-1.519,1.291-2.279,1.938-1.139-.146-2.055.662-3.213.676a21.6,21.6,0,0,1-3.436-.245c-.653-.094-1.024-.62-1.632-.7-.167-.022-.454-.234-.442-.321.187-1.219-1.4-1.376-1.434-2.285a6.235,6.235,0,0,0-.829-2.754,11.127,11.127,0,0,1-.536-1.728,2.577,2.577,0,0,1-.047-1.81c.261-.6.414-1.244.667-1.846a14.807,14.807,0,0,1,1.027-2.12,4.373,4.373,0,0,1,1.175-1.194,11.961,11.961,0,0,1,1.722-.907.978.978,0,0,1,.554-.112c.344.064.613.429,1.041.013a1.218,1.218,0,0,1,1.058-.066c.8.315,1.772.071,2.452.73.388.377,1.027.214,1.374.8a1.692,1.692,0,0,0,1.236.854c.176.019.3.44.467.659a7.114,7.114,0,0,0,1.164,1.412c.475.36.083,1,.451,1.194a.868.868,0,0,1,.489,1.041,1.059,1.059,0,0,0,.181.519,1.76,1.76,0,0,1,.046,2.029C283.485,142.411,283.408,142.629,283.332,142.831ZM271.385,137.6a1.944,1.944,0,0,1-.208,1.642,4.486,4.486,0,0,0-.333,1.78,4.281,4.281,0,0,0,.164,2.45c.091.208-.176.552-.132.808.03.168.385.259.483.443a5.114,5.114,0,0,0,3.085,2.837,5.046,5.046,0,0,0,2.123.118,4.986,4.986,0,0,0,2.809-.782,4.771,4.771,0,0,0,1.963-2.211,18.451,18.451,0,0,0,.547-3.156c.1-.535-.371-1.095-.17-1.714.022-.069-.621-.263-.662-.459a3.031,3.031,0,0,0-1.777-2.387.375.375,0,0,1-.159-.234c-.261-1.029-1.319-1.121-2.011-1.5-1.154-.629-2.482-.033-3.729.116-.22.027-.415.359-.6.571C272.327,136.457,271.887,137,271.385,137.6Z" transform="translate(13.023 19.746)" fill="#8a8db1"/>
    <path id="Path_3920" data-name="Path 3920" d="M259.465,123.878l-.489-.311.193-.16.255.513Z" transform="translate(7.672 14.327)" fill="#8a8db1"/>
    <path id="Path_3921" data-name="Path 3921" d="M262.567,108.613c.041-.554-.1-1.189.665-1.4.7-1.14,1.882-1.919,2.4-3.213a3.234,3.234,0,0,1,.823-1.038,10.063,10.063,0,0,0,2.132-2.57c.049-.094.245-.11.374-.164l.514.263a25.156,25.156,0,0,1-1.727,2.4c-1.321,1.461-2.511,3.029-3.806,4.5C263.574,107.821,263.254,108.479,262.567,108.613Z" transform="translate(9.728 1.057)" fill="#8a8db1"/>
    <path id="Path_3922" data-name="Path 3922" d="M261.879,134.792l-.318-.388c.264-.239.535-.465.782-.717.167-.168.462-.432.42-.549-.3-.813.816-1.118.632-1.9a.829.829,0,0,1,.37-.653,2.867,2.867,0,0,0,1.071-1.426c.131-.288.085-.9.706-.843.333-.834.552-1.747,1.489-2.167-.28-.893.585-1.159.9-1.728a24.393,24.393,0,0,0,1.919-3.284,1.81,1.81,0,0,1,.536-.835,7.563,7.563,0,0,0,1.831-2.669,19.653,19.653,0,0,1,1.826-2.379c.116-.138.447-.1.678-.138l-.046-.049a13.869,13.869,0,0,1-1.357,2.478c-.67.73-1.1,1.676-1.7,2.471-.473.618-1.065,1.146-1.593,1.725-.09.1-.2.266-.173.37.2.822-.461,1.408-.6,2.15-.126.661-.84,1.192-1.227,1.821-.583.945-1.068,1.952-1.667,2.886-.76,1.187-1.7,2.271-2.357,3.507a5.5,5.5,0,0,1-2.038,2.416Z" transform="translate(9.152 9.554)" fill="#8a8db1"/>
    <path id="Path_3923" data-name="Path 3923" d="M272.319,107.58c-.39.973-.774,1.95-1.175,2.919a1.527,1.527,0,0,1-.335.462,2.932,2.932,0,0,0-1.222,2.272l-.521-.255c-.212,1.516-1.385,2.381-2.365,3.386.315-.838.583-1.7.958-2.508.28-.607.741-1.128,1.036-1.728.307-.624.362-1.4,1.172-1.665.124-1.283,1.689-1.7,1.769-2.972l.727.134Z" transform="translate(12.096 5.213)" fill="#8a8db1"/>
    <path id="Path_3924" data-name="Path 3924" d="M259.966,131.571c-.052-.113-.149-.239-.123-.277.532-.747.541-1.771,1.294-2.406.209-.176.294-.5.506-.67.459-.37-.222-1.338.76-1.4a1.985,1.985,0,0,1,.994-1.439c.075-.044-.075-.395.008-.511a3.123,3.123,0,0,1,.694-.514c-.019-.116-.061-.39-.118-.747a4.318,4.318,0,0,0,.989-.448,3.976,3.976,0,0,0,.643-.868l-.794-.17,1.961-1.6a7.883,7.883,0,0,1-1.483,3.057,5.84,5.84,0,0,0-1.076,1.9.69.69,0,0,1-.156.239,24.215,24.215,0,0,0-2.227,3.329c-.289.466-.516.973-.835,1.415A12.034,12.034,0,0,1,259.966,131.571Z" transform="translate(8.166 12.676)" fill="#8a8db1"/>
    <path id="Path_3925" data-name="Path 3925" d="M264.171,137.145a6.108,6.108,0,0,1,.626-3.224c.385-.8.683-1.662,1.066-2.475a1.4,1.4,0,0,1,.385-.582.855.855,0,0,1,.651-.072c.109.033.2.316.2.486a4.368,4.368,0,0,1-.341,1.26,30.986,30.986,0,0,1-1.614,3.766C265,136.6,264.613,136.774,264.171,137.145Z" transform="translate(10.639 18.538)" fill="#8a8db1"/>
    <path id="Path_3926" data-name="Path 3926" d="M266.334,109.687l-.17-1.057c.266-.637,1.165-.912,1.217-1.794.011-.175.513-.319.788-.48l-.286-.359a1.469,1.469,0,0,0,1.324-1.236c.046-.228,0-.533.127-.676a11.465,11.465,0,0,1,1.294-1.175,2.452,2.452,0,0,1,1.019-.47c-.187.36.143.973-.6,1-.1,0-.231.175-.282.3-.642,1.544-1.985,2.589-2.856,3.985-.414.66-1.241,1.12-1.62,1.9Z" transform="translate(11.788 2.322)" fill="#8a8db1"/>
    <path id="Path_3927" data-name="Path 3927" d="M269.024,114.887c0-.263-.091-.615.041-.764.189-.214.363-.322.326-.676-.047-.44.049-.906.668-.429.085-.206.152-.582.261-.594.66-.077.524-.873,1.095-1.11.327-.137.4-.856.615-1.3.3-.61.728-.755,1.625-.45-1.179.236-1.241,1.2-1.623,1.933-.209.4-.293.753-.862.973a2.506,2.506,0,0,0-1.121,1.511,1.1,1.1,0,0,1-1.06.873Z" transform="translate(13.405 6.314)" fill="#8a8db1"/>
    <path id="Path_3928" data-name="Path 3928" d="M269.35,108.12c.006.167.082.434.008.486a2.85,2.85,0,0,0-1.14,1.587,1.756,1.756,0,0,1-.467.689,3.632,3.632,0,0,0-1.217,1.5c-.033.116-.326.157-.522.244-.049-.157-.17-.344-.121-.415a17.153,17.153,0,0,1,1.535-2.077,2.4,2.4,0,0,0,.635-1.749l1.285-.269Z" transform="translate(11.625 5.571)" fill="#8a8db1"/>
    <path id="Path_3929" data-name="Path 3929" d="M262.576,132.435c-.8-1.036.428-1.315.445-1.941a3.39,3.39,0,0,1,.841-1.755c.368-.563.637-1.19,1.054-1.988.2.613.547.837.086,1.414a8.28,8.28,0,0,1-1.142,1.393,1.167,1.167,0,0,0-.256.459C263.276,130.777,262.955,131.541,262.576,132.435Z" transform="translate(9.579 16.243)" fill="#8a8db1"/>
    <path id="Path_3930" data-name="Path 3930" d="M263.352,131.57c.222.316.426.609.634.9a.894.894,0,0,1-.077.244c-.255.39-.934.5-.783,1.162l-1.146.234C262.537,133.078,262.951,132.314,263.352,131.57Z" transform="translate(9.392 19.002)" fill="#8a8db1"/>
    <path id="Path_3931" data-name="Path 3931" d="M266.667,103.676a4.8,4.8,0,0,1,.443-1.016c.376-.511.832-.966,1.338-1.54.285.771-.255,1.109-.464,1.53a1.828,1.828,0,0,1-1.279,1.047Z" transform="translate(12.076 1.566)" fill="#8a8db1"/>
    <path id="Path_3932" data-name="Path 3932" d="M268.091,108.9c-.086-.948.033-1.787,1.142-2.144a.981.981,0,0,1-.222,1.312c-.313.269-.61.557-.915.837Z" transform="translate(12.879 4.791)" fill="#8a8db1"/>
    <path id="Path_3933" data-name="Path 3933" d="M268.759,113.8c.035.587.041,1.129-.7,1.356-.176.053-.253.431-.406.714-.41-1.146-.41-1.179.269-1.592.28-.17.585-.3.878-.44Z" transform="translate(12.482 8.825)" fill="#8a8db1"/>
    <path id="Path_3934" data-name="Path 3934" d="M265.816,119.351l-1.109,1.691c-.108-.311-.275-.538-.233-.717a6.566,6.566,0,0,1,.458-1.09l.934.153Z" transform="translate(10.817 11.939)" fill="#8a8db1"/>
    <path id="Path_3935" data-name="Path 3935" d="M267.211,102.779l.039.022c-.031.252.025.585-.115.738a3.511,3.511,0,0,1-1.418.936c.085-.16.129-.392.263-.47.3-.176.5-.316.462-.742C266.431,103.144,266.635,102.435,267.211,102.779Z" transform="translate(11.532 2.462)" fill="#8a8db1"/>
    <path id="Path_3936" data-name="Path 3936" d="M266.781,107.012a1.8,1.8,0,0,1-1.466,1.346,1.434,1.434,0,0,1,1.505-1.29Z" transform="translate(11.302 4.94)" fill="#8a8db1"/>
    <path id="Path_3937" data-name="Path 3937" d="M264.794,106.354c-.319-.667-.319-.667.992-2.081A3.766,3.766,0,0,1,264.794,106.354Z" transform="translate(10.903 3.371)" fill="#8a8db1"/>
    <path id="Path_3938" data-name="Path 3938" d="M270.376,107.927c-.366-.95-.351-.964,1.047-.967a1.367,1.367,0,0,1-.1.387c-.167.266-.36.514-.533.755l-.456-.219Z" transform="translate(14.084 4.91)" fill="#8a8db1"/>
    <path id="Path_3939" data-name="Path 3939" d="M266.793,117.368c-.124.407-.248.816-.415,1.362C265.892,117.942,265.892,117.942,266.793,117.368Z" transform="translate(11.725 10.87)" fill="#8a8db1"/>
    <path id="Path_3940" data-name="Path 3940" d="M269.408,112.874c.264,1-.579,1.12-1.153,1.453l.042.038a1.652,1.652,0,0,1,1.146-1.461Z" transform="translate(12.986 8.296)" fill="#8a8db1"/>
    <path id="Path_3941" data-name="Path 3941" d="M261.937,128.194c.116.645-.466.591-.841.772.175-.355-.022-.914.62-1Z" transform="translate(8.886 16.937)" fill="#8a8db1"/>
    <path id="Path_3942" data-name="Path 3942" d="M269.422,106.979a3.575,3.575,0,0,1-.16-.786.834.834,0,0,1,.241-.418.272.272,0,0,1,.241.025.892.892,0,0,1,.083.483A3.735,3.735,0,0,1,269.422,106.979Z" transform="translate(13.561 4.221)" fill="#8a8db1"/>
    <path id="Path_3943" data-name="Path 3943" d="M265.492,119.717l-.37-1,.848-.06c.064.47-.239.742-.528,1.021Z" transform="translate(11.192 11.61)" fill="#8a8db1"/>
    <path id="Path_3944" data-name="Path 3944" d="M261.764,128.41l-.222-.23c-.234-.642-.234-.642.429-.555l.08.1Z" transform="translate(9.06 16.721)" fill="#8a8db1"/>
    <path id="Path_3945" data-name="Path 3945" d="M264.813,106.021l-.838.6C263.768,105.93,264.046,105.836,264.813,106.021Z" transform="translate(10.497 4.325)" fill="#8a8db1"/>
    <path id="Path_3946" data-name="Path 3946" d="M267.611,115.509l-.56.615-.187-.143.539-.7Z" transform="translate(12.189 9.673)" fill="#8a8db1"/>
    <path id="Path_3947" data-name="Path 3947" d="M269.947,115.416c.027-.261.053-.521.088-.862.579.675.579.675-.134.813Z" transform="translate(13.928 9.258)" fill="#8a8db1"/>
    <path id="Path_3948" data-name="Path 3948" d="M271.009,114.124c-.112.182-.223.363-.359.582C270.065,114.19,270.513,114.121,271.009,114.124Z" transform="translate(14.198 9.012)" fill="#8a8db1"/>
    <path id="Path_3949" data-name="Path 3949" d="M263.155,107.4a.787.787,0,0,1,.079-.252,1.8,1.8,0,0,1,.266-.247c.046.064.142.164.126.187a.786.786,0,0,1-.253.245c-.069.038-.175.013-.263.017Z" transform="translate(10.039 4.874)" fill="#8a8db1"/>
    <path id="Path_3950" data-name="Path 3950" d="M272.157,113.3l.231.678-.244.061-.154-.689Z" transform="translate(15.124 8.539)" fill="#8a8db1"/>
    <path id="Path_3951" data-name="Path 3951" d="M261.054,108.168l-.31-.47.961-.845-.42-.571c1.722-.1,1.936-1.665,2.766-2.6.286-.324.186-.9.846-1.051.28-.061.574-.594.643-.956.154-.8.835-1.041,1.373-1.684a4.711,4.711,0,0,1,.1.709c0,.066-.112.165-.189.187-.871.242-.363,1.255-.98,1.7a2.508,2.508,0,0,0-1.206,1.576,3.523,3.523,0,0,1-1.371,1.813,2.739,2.739,0,0,0-.9,1.06c-.236.541-.576,1.131-1.341,1.112Z" transform="translate(8.684 0.917)" fill="#8a8db1"/>
    <path id="Path_3952" data-name="Path 3952" d="M253.649,108.608c-.549.582-1.279.937-1.308,1.837-.009.259-.473.51-.742.749-.044.039-.159,0-.241,0,.274.911-.605,1.367-.846,2.085a2.6,2.6,0,0,1-1.324,1.687,1.576,1.576,0,0,1,.22-1.514,21.453,21.453,0,0,0,2.128-3.7,5.635,5.635,0,0,1,1.068-1.464C252.926,107.947,253.3,108.094,253.649,108.608Z" transform="translate(2.009 5.564)" fill="#8a8db1"/>
    <path id="Path_3953" data-name="Path 3953" d="M256.007,103.909h.852c-.445.392-.83.571-.923.849-.142.423-.156.81-.728.914-.184.033-.348.407-.443.657a17.16,17.16,0,0,1-2.1,3.6c-.151.214-.627.2-1.069.322a17.672,17.672,0,0,1,2.933-4.732c.414-.577.714-1.343,1.5-1.61Z" transform="translate(3.444 3.163)" fill="#8a8db1"/>
    <path id="Path_3954" data-name="Path 3954" d="M259.475,105.542c.953-.744,1.277-2,2.272-2.74.319-.236.368-.833.588-1.385.489-.013,1.041-.881,1.669.031-1.294.918-3.3,3.453-3.472,4.491l-1.093-.45Z" transform="translate(7.937 1.515)" fill="#8a8db1"/>
    <path id="Path_3955" data-name="Path 3955" d="M254.4,105.535l.016,0a3.211,3.211,0,0,1,.263-.892c.634-.981,1.3-1.945,1.985-2.891.349-.483.687-.593,1.643-.686-.25.291-.467.514-.648.763-.363.5-.933.772-1.05,1.571-.085.565-.909,1.027-1.422,1.514A9.418,9.418,0,0,1,254.4,105.535Z" transform="translate(5.052 1.537)" fill="#8a8db1"/>
    <path id="Path_3956" data-name="Path 3956" d="M249.055,111.186a.648.648,0,0,1-.064-1.085,10.028,10.028,0,0,0,1.5-2.436c.173-.327.566-.536.86-.8a.67.67,0,0,1,.28-.033c.19.373-.047.583-.263.854-.374.465-.679.986-1.013,1.485q-.67,1-1.337,2Z" transform="translate(1.803 4.836)" fill="#8a8db1"/>
    <path id="Path_3957" data-name="Path 3957" d="M253.379,103.2c-.341.432.423,1.319-.456,1.535.151.716-.711.852-.843,1.481-.074.346-.552.05-.753-.223Z" transform="translate(3.292 2.754)" fill="#8a8db1"/>
    <path id="Path_3958" data-name="Path 3958" d="M260.71,101.309c.156.917-.734.914-1.219,1.455l.1.489-.874.465.041.035a1.561,1.561,0,0,1,.61-1.653c.384-.343.816-.629,1.227-.942A.173.173,0,0,1,260.71,101.309Z" transform="translate(7.515 1.587)" fill="#8a8db1"/>
    <path id="Path_3959" data-name="Path 3959" d="M250.7,107.744a.67.67,0,0,0-.28.033c-.228-.536.086-.892.395-1.269s.558-.771.912-1.268C251.948,106.391,251.272,107.047,250.7,107.744Z" transform="translate(2.729 3.925)" fill="#8a8db1"/>
    <path id="Path_3960" data-name="Path 3960" d="M249.388,109.606l-.039-.016c.022.042.069.091.061.127a2.844,2.844,0,0,1-.208.756c-.129.23-.649.09-.566.607.025.156-.233.359-.492.727C248.235,110.114,248.355,109.927,249.388,109.606Z" transform="translate(1.469 6.416)" fill="#8a8db1"/>
    <path id="Path_3961" data-name="Path 3961" d="M251.864,122.58c.165-.51.321-.988.492-1.519l.708-.058c.237.8-.395,1.239-.708,1.8C252.35,122.816,252.045,122.664,251.864,122.58Z" transform="translate(3.6 12.951)" fill="#8a8db1"/>
    <path id="Path_3962" data-name="Path 3962" d="M260.229,101.238c-.138-1.11.038-1.346,1.01-1.156-.387.392-.333,1.066-1.051,1.112Z" transform="translate(8.366 0.937)" fill="#8a8db1"/>
    <path id="Path_3963" data-name="Path 3963" d="M249.1,112.665c-.212.712-.426,1.426-.694,2.32C248.306,113.967,248.306,113.967,249.1,112.665Z" transform="translate(1.593 8.177)" fill="#8a8db1"/>
    <path id="Path_3964" data-name="Path 3964" d="M252.723,103.238l.533-.9.667.23-.588.929Z" transform="translate(4.092 2.261)" fill="#8a8db1"/>
    <path id="Path_3965" data-name="Path 3965" d="M253.7,110.194c.489,1.224-.475,1.288-.722,1.79C252.738,111.182,253.626,111.072,253.7,110.194Z" transform="translate(4.215 6.762)" fill="#8a8db1"/>
    <path id="Path_3966" data-name="Path 3966" d="M260.055,101.533a.173.173,0,0,0-.115-.151c-.248-.538.019-.637.484-.571l-.041-.044Z" transform="translate(8.17 1.364)" fill="#8a8db1"/>
  </g>
</svg>
